<?xml version="1.0" encoding="iso-8859-1"?>
<!-- Generator: Adobe Illustrator 19.0.0, SVG Export Plug-In . SVG Version: 6.00 Build 0)  -->
<svg version="1.1" id="Layer_1" xmlns="http://www.w3.org/2000/svg" xmlns:xlink="http://www.w3.org/1999/xlink" x="0px" y="0px"
	 viewBox="0 0 511.999 511.999" style="enable-background:new 0 0 511.999 511.999;" xml:space="preserve">
<g>
	<g>
		<g>
			<path d="M511.633,340.735c-1.526-5.69-7.371-9.073-13.065-7.539l-38.218,10.25l-39.775-148.582
				c-0.733-2.734-2.519-5.064-4.971-6.479c-2.45-1.415-5.363-1.798-8.097-1.065l-72.061,19.327l-30.369-113.44
				c-0.733-2.734-2.519-5.065-4.971-6.479c-2.45-1.415-5.362-1.798-8.097-1.065l-154.534,41.447l-22.078-82.584
				c-0.732-2.734-2.519-5.067-4.971-6.482c-2.454-1.417-5.367-1.797-8.099-1.065l-13.048,3.502
				c-5.855-8.508-15.639-13.906-26.402-13.906c-2.778,0-5.552,0.367-8.25,1.089l-30.91,8.29C6.735,40.512-3.404,57.999,1.048,74.994
				c0.015,0.06,0.029,0.117,0.045,0.176c3.741,13.972,16.465,23.729,30.945,23.729c2.779,0,5.553-0.367,8.248-1.089l30.909-8.289
				c13.432-3.601,22.577-15.293,23.615-28.434l2.735-0.734l22.067,82.543c0.004,0.014,0.005,0.028,0.01,0.043l1.62,6.05
				l31.384,117.395c0.025,0.107,0.039,0.212,0.067,0.318l12.141,45.352l30.354,113.54c0.732,2.734,2.519,5.066,4.97,6.481
				c1.636,0.945,3.478,1.43,5.335,1.43c0.925,0,1.854-0.12,2.763-0.364l5.547-1.488c-1.895,7.016-2.037,14.603-0.026,22.114
				c0.986,3.68,2.443,7.136,4.286,10.321h-37.126c-5.891,0-10.667,4.776-10.667,10.667s4.775,10.667,10.667,10.667h73.982
				c0.017,0,0.033,0.001,0.05,0.001c0.011,0,0.021-0.001,0.031-0.001h47.095c5.89,0,10.667-4.776,10.667-10.667
				s-4.776-10.667-10.667-10.667H291.9c5.477-9.474,7.347-21.037,4.3-32.418c-1.99-7.436-5.888-13.971-11.07-19.148l134.771-36.144
				c-1.895,7.016-2.037,14.604-0.026,22.115c4.988,18.639,21.925,31.655,41.188,31.655c3.723,0,7.447-0.493,11.067-1.464
				c22.722-6.093,36.256-29.547,30.17-52.288c-1.991-7.437-5.888-13.972-11.072-19.149l12.864-3.45
				C509.783,352.276,513.158,346.425,511.633,340.735z M65.672,68.915l-30.91,8.289c-0.894,0.24-1.811,0.362-2.725,0.362
				c-4.804,0-9.028-3.206-10.309-7.811c-0.01-0.035-0.018-0.07-0.028-0.107c-1.524-5.692,1.861-11.563,7.546-13.088l30.905-8.289
				c0.895-0.24,1.812-0.362,2.726-0.362c4.838,0,9.088,3.254,10.336,7.915c0,0.004,0.001,0.009,0.002,0.013v0.001
				C74.733,61.528,71.351,67.393,65.672,68.915z M225.411,125.612L237.6,171.14l-6.462-1.324c-3.292-0.672-6.707,0.243-9.221,2.471
				l-4.927,4.373l-12.188-45.521L225.411,125.612z M142.987,147.721l41.21-11.054l16.652,62.196
				c0.956,3.573,3.695,6.395,7.237,7.458c1.008,0.302,2.041,0.45,3.066,0.45c2.575,0,5.103-0.933,7.082-2.689l13.853-12.294
				l18.14,3.715c3.626,0.742,7.37-0.445,9.904-3.136c2.535-2.69,3.495-6.502,2.541-10.072l-16.653-62.209l41.211-11.054
				l27.612,103.142l-144.243,38.684L142.987,147.721z M311.885,283.851l-6.463-1.323c-3.292-0.679-6.707,0.243-9.219,2.471
				l-4.929,4.375l-12.189-45.523l20.61-5.529L311.885,283.851z M260.505,463.355c-1.808,0.484-3.661,0.731-5.506,0.734h-0.057
				c-9.613-0.012-18.065-6.519-20.559-15.839c-3.043-11.364,3.705-23.085,15.042-26.151l0.108-0.029
				c1.798-0.477,3.641-0.72,5.476-0.72c9.622,0,18.087,6.512,20.583,15.838C278.64,448.568,271.873,460.307,260.505,463.355z
				 M254.25,398.716l-14.846-55.453c-1.524-5.69-7.369-9.068-13.062-7.546c-5.691,1.524-9.069,7.372-7.546,13.062l14.849,55.463
				l-20.57,5.517l-27.674-103.377l-9.33-34.902l82.411-22.103l16.653,62.198c0.957,3.573,3.695,6.395,7.236,7.457
				c1.009,0.303,2.042,0.451,3.067,0.451c2.575,0,5.103-0.933,7.082-2.688l13.855-12.295l18.141,3.712
				c3.627,0.743,7.37-0.446,9.903-3.136c2.534-2.69,3.494-6.501,2.54-10.071l-16.654-62.205l41.209-11.053l14.847,55.456
				c1.276,4.767,5.586,7.911,10.297,7.911c0.912,0,1.841-0.118,2.765-0.366c5.691-1.524,9.069-7.372,7.546-13.062l-14.849-55.465
				l20.61-5.529l37.015,138.278L254.25,398.716z M466.604,408.081c-1.82,0.487-3.683,0.736-5.54,0.736
				c-9.622,0-18.085-6.512-20.58-15.838c-3.044-11.368,3.708-23.093,15.048-26.155l0.087-0.022c1.803-0.48,3.649-0.724,5.487-0.724
				c9.623,0,18.089,6.513,20.586,15.838C484.738,393.296,477.971,405.034,466.604,408.081z"/>
			<path d="M391.752,293.441c-5.692,1.522-9.071,7.368-7.549,13.059l1.076,4.023c1.275,4.769,5.585,7.915,10.298,7.915
				c0.912,0,1.839-0.118,2.762-0.366c5.692-1.522,9.071-7.368,7.549-13.059l-1.076-4.023
				C403.289,295.299,397.446,291.916,391.752,293.441z"/>
			<path d="M230.48,309.929c-1.525-5.69-7.368-9.07-13.064-7.541c-5.69,1.525-9.067,7.374-7.541,13.064l1.078,4.022
				c1.277,4.766,5.586,7.908,10.296,7.908c0.913,0,1.843-0.118,2.768-0.367c5.69-1.525,9.067-7.374,7.541-13.064L230.48,309.929z"/>
			<path d="M337.841,464.088h-4.686c-5.891,0-10.667,4.776-10.667,10.667c0,5.89,4.775,10.667,10.667,10.667h4.686
				c5.89,0,10.667-4.776,10.667-10.667C348.508,468.863,343.731,464.088,337.841,464.088z"/>
		</g>
	</g>
</g>
<g>
</g>
<g>
</g>
<g>
</g>
<g>
</g>
<g>
</g>
<g>
</g>
<g>
</g>
<g>
</g>
<g>
</g>
<g>
</g>
<g>
</g>
<g>
</g>
<g>
</g>
<g>
</g>
<g>
</g>
</svg>
