<?xml version="1.0" encoding="iso-8859-1"?>
<!-- Generator: Adobe Illustrator 19.0.0, SVG Export Plug-In . SVG Version: 6.00 Build 0)  -->
<svg version="1.1" id="Layer_1" xmlns="http://www.w3.org/2000/svg" xmlns:xlink="http://www.w3.org/1999/xlink" x="0px" y="0px"
	 viewBox="0 0 512 512" style="enable-background:new 0 0 512 512;" xml:space="preserve">
<g>
	<g>
		<g>
			<path d="M202.668,85.332c-11.773,0-21.333,9.578-21.333,21.332c0,11.792,9.542,21.332,21.333,21.332h10.667
				c5.889,0,10.666-4.774,10.666-10.664v-10.669C224,94.933,214.401,85.332,202.668,85.332z"/>
			<path d="M309.329,85.332c-11.734,0-21.332,9.601-21.332,21.332v10.669c0,5.89,4.778,10.664,10.669,10.664h10.664
				c11.793,0,21.334-9.54,21.334-21.332C330.664,94.909,321.102,85.332,309.329,85.332z"/>
			<path d="M501.333,447.999h-38.402V234.661h6.401c5.89,0,10.667-4.776,10.667-10.667v-63.997c0-5.89-4.777-10.667-10.667-10.667
				H356.981c10.157-11.331,16.349-26.287,16.349-42.667c0-35.288-28.711-63.996-64-63.996c-22.239,0-41.857,11.408-53.33,28.673
				c-11.475-17.265-31.091-28.673-53.331-28.673c-35.289,0-63.998,28.708-63.998,63.996c0,16.379,6.192,31.336,16.348,42.667H42.665
				c-5.891,0-10.667,4.777-10.667,10.667v63.997c0,5.891,4.776,10.667,10.667,10.667h6.402v213.337h-38.4
				C4.776,447.999,0,452.775,0,458.665c0,5.89,4.776,10.667,10.667,10.667h49.067h142.934h106.662h142.935h49.069
				c5.891,0,10.667-4.777,10.667-10.667C512,452.775,507.225,447.999,501.333,447.999z M192.001,447.999h-78.934v-96
				c0-5.89-4.776-10.667-10.667-10.667c-5.891,0-10.667,4.777-10.667,10.667v96H70.4V234.661h121.601V447.999z M192.001,213.328
				H59.734h-6.402v-42.664h138.669V213.328z M160.003,106.664c0-23.524,19.139-42.663,42.665-42.663
				c23.525,0,42.665,19.138,42.665,42.663v42.667h-42.665C179.142,149.331,160.003,130.19,160.003,106.664z M298.663,447.999
				h-85.328V234.661h85.328V447.999z M298.663,213.328h-85.328v-42.664h42.665h42.664V213.328z M266.666,149.331v-42.667
				c0-23.524,19.138-42.663,42.664-42.663c23.526,0,42.667,19.138,42.667,42.663c0,23.527-19.14,42.667-42.667,42.667H266.666z
				 M441.598,447.999H319.996V234.661h78.934v96.005c0,5.891,4.777,10.667,10.667,10.667c5.891,0,10.667-4.776,10.667-10.667
				v-96.005h21.335V447.999z M458.665,213.328h-6.401H319.996v-42.664h138.669V213.328z"/>
			<path d="M102.4,327.469c5.891,0,10.667-4.777,10.667-10.667V310.4c0-5.89-4.776-10.667-10.667-10.667
				c-5.891,0-10.667,4.777-10.667,10.667v6.402C91.734,322.693,96.509,327.469,102.4,327.469z"/>
			<path d="M409.596,355.194c-5.89,0-10.667,4.777-10.667,10.667v6.398c0,5.89,4.777,10.667,10.667,10.667
				c5.891,0,10.667-4.777,10.667-10.667v-6.398C420.263,359.971,415.488,355.194,409.596,355.194z"/>
		</g>
	</g>
</g>
<g>
</g>
<g>
</g>
<g>
</g>
<g>
</g>
<g>
</g>
<g>
</g>
<g>
</g>
<g>
</g>
<g>
</g>
<g>
</g>
<g>
</g>
<g>
</g>
<g>
</g>
<g>
</g>
<g>
</g>
</svg>
