<?xml version="1.0" encoding="iso-8859-1"?>
<!-- Generator: Adobe Illustrator 19.0.0, SVG Export Plug-In . SVG Version: 6.00 Build 0)  -->
<svg version="1.1" id="Layer_1" xmlns="http://www.w3.org/2000/svg" xmlns:xlink="http://www.w3.org/1999/xlink" x="0px" y="0px"
	 viewBox="0 0 512 512" style="enable-background:new 0 0 512 512;" xml:space="preserve">
<g>
	<g>
		<g>
			<path d="M458.663,197.913h-83.817L343.176,79.789c12.927-7.34,21.67-21.225,21.67-37.121C364.846,19.14,345.707,0,322.179,0
				S279.51,19.14,279.51,42.668s19.141,42.668,42.669,42.668c0.131,0,0.26-0.01,0.391-0.011l30.188,112.588H159.244l30.182-112.588
				c0.131,0.001,0.261,0.011,0.393,0.011c23.527,0,42.668-19.14,42.668-42.668S213.346,0,189.819,0
				c-23.528,0-42.668,19.14-42.668,42.668c0,15.897,8.746,29.782,21.672,37.122l-31.667,118.123H53.334
				c-5.89,0-10.667,4.775-10.667,10.667v42.669c0,5.891,4.776,10.667,10.667,10.667h13.565l7.794,104.261
				c2.83,37.858,31.709,66.407,67.174,66.407h228.263c35.467,0,64.344-28.549,67.175-66.407l7.794-104.261h13.565
				c5.892,0,10.667-4.775,10.667-10.667v-42.669C469.33,202.688,464.556,197.913,458.663,197.913z M332.483,39.905
				c-1.525-5.689-7.371-9.07-13.065-7.54c-5.69,1.526-9.067,7.375-7.541,13.066l4.779,17.82
				c-9.09-2.444-15.811-10.733-15.811-20.582c0-11.763,9.571-21.334,21.335-21.334c11.762,0,21.333,9.571,21.333,21.334
				c0,5.878-2.389,11.21-6.25,15.072L332.483,39.905z M168.484,42.668c0-11.763,9.571-21.334,21.334-21.334
				s21.334,9.571,21.334,21.334c0,9.85-6.72,18.139-15.808,20.582l4.778-17.821c1.525-5.69-1.851-11.539-7.54-13.065
				c-5.699-1.53-11.539,1.852-13.066,7.54l-4.781,17.835C170.875,53.877,168.484,48.546,168.484,42.668z M416.03,364.586
				c-1.987,26.603-21.721,46.664-45.9,46.664H141.867c-24.178,0-43.911-20.062-45.9-46.664l-7.675-102.671h335.415L416.03,364.586z
				 M435.201,240.581H76.798H64.001v-21.336h81.273c0.025,0,0.048,0.005,0.071,0.005c0.037,0,0.075-0.004,0.112-0.005h221.086
				c0.037,0.001,0.075,0.005,0.112,0.005c0.023,0,0.048-0.005,0.07-0.005h81.268v21.336H435.201z"/>
			<path d="M149.328,389.915c5.891,0,10.667-4.775,10.667-10.667v-85.332c0-5.89-4.775-10.667-10.667-10.667
				c-5.89,0-10.667,4.777-10.667,10.667v85.332C138.661,385.138,143.438,389.915,149.328,389.915z"/>
			<path d="M309.324,389.915c5.89,0,10.667-4.775,10.667-10.667v-85.332c0-5.89-4.777-10.667-10.667-10.667
				c-5.891,0-10.667,4.777-10.667,10.667v85.332C298.657,385.138,303.433,389.915,309.324,389.915z"/>
			<path d="M362.999,309.921c5.891,0,10.667-4.775,10.667-10.667v-5.336c0-5.891-4.776-10.667-10.667-10.667
				c-5.89,0-10.667,4.775-10.667,10.667v5.336C352.333,305.146,357.109,309.921,362.999,309.921z"/>
			<path d="M362.999,389.915c5.891,0,10.667-4.775,10.667-10.667v-42.666c0-5.89-4.776-10.667-10.667-10.667
				c-5.89,0-10.667,4.777-10.667,10.667v42.666C352.333,385.138,357.109,389.915,362.999,389.915z"/>
			<path d="M362.666,490.667H149.332c-5.891,0-10.667,4.775-10.667,10.667c0,5.89,4.775,10.667,10.667,10.667h213.333
				c5.89,0,10.667-4.776,10.667-10.667C373.332,495.442,368.556,490.667,362.666,490.667z"/>
			<path d="M255.995,389.915c5.889,0,10.667-4.775,10.667-10.667v-6.587c0-5.891-4.778-10.667-10.667-10.667
				c-5.89,0-10.667,4.775-10.667,10.667v6.587C245.328,385.138,250.105,389.915,255.995,389.915z"/>
			<path d="M202.423,310.893c5.89,0,10.667-4.775,10.667-10.667v-6.308c0-5.891-4.776-10.667-10.667-10.667
				c-5.891,0-10.667,4.775-10.667,10.667v6.308C191.757,306.117,196.532,310.893,202.423,310.893z"/>
			<path d="M255.995,347.249c5.889,0,10.667-4.775,10.667-10.667v-42.667c0-5.89-4.778-10.667-10.667-10.667
				c-5.89,0-10.667,4.776-10.667,10.667v42.667C245.328,342.474,250.105,347.249,255.995,347.249z"/>
			<path d="M202.423,389.915c5.89,0,10.667-4.775,10.667-10.667v-42.666c0-5.89-4.776-10.667-10.667-10.667
				c-5.891,0-10.667,4.777-10.667,10.667v42.666C191.757,385.138,196.532,389.915,202.423,389.915z"/>
		</g>
	</g>
</g>
<g>
</g>
<g>
</g>
<g>
</g>
<g>
</g>
<g>
</g>
<g>
</g>
<g>
</g>
<g>
</g>
<g>
</g>
<g>
</g>
<g>
</g>
<g>
</g>
<g>
</g>
<g>
</g>
<g>
</g>
</svg>
