<?xml version="1.0" encoding="iso-8859-1"?>
<!-- Generator: Adobe Illustrator 19.0.0, SVG Export Plug-In . SVG Version: 6.00 Build 0)  -->
<svg version="1.1" id="Layer_1" xmlns="http://www.w3.org/2000/svg" xmlns:xlink="http://www.w3.org/1999/xlink" x="0px" y="0px"
	 viewBox="0 0 512 512" style="enable-background:new 0 0 512 512;" xml:space="preserve">
<g>
	<g>
		<g>
			<path d="M255.881,474.667c8.811,0,15.998-7.187,15.998-15.998c0-8.815-7.188-16.002-15.998-16.002c-8.813,0-16,7.187-16,16.002
				C239.881,467.479,247.068,474.667,255.881,474.667z"/>
			<path d="M458.593,155.366c-0.013-0.104-0.033-0.206-0.048-0.31c-0.042-0.3-0.094-0.596-0.16-0.885
				c-0.027-0.112-0.059-0.225-0.087-0.335c-0.075-0.288-0.162-0.569-0.262-0.846c-0.035-0.102-0.07-0.204-0.111-0.306
				c-0.123-0.308-0.258-0.61-0.406-0.905c-0.025-0.048-0.039-0.098-0.064-0.144l-0.063-0.118c-0.006-0.015-0.013-0.027-0.021-0.039
				l-41.491-79.431V46.304C415.878,20.771,395.105,0,369.574,0H142.182c-25.532,0-46.304,20.771-46.304,46.302l-0.002,25.757
				l-41.252,79.425c-0.004,0.006-0.009,0.015-0.013,0.021l-0.079,0.153c-0.027,0.052-0.044,0.109-0.07,0.16
				c-0.144,0.286-0.275,0.579-0.391,0.879c-0.039,0.102-0.077,0.206-0.112,0.308c-0.098,0.275-0.183,0.555-0.26,0.839
				c-0.029,0.112-0.059,0.223-0.085,0.335c-0.067,0.289-0.116,0.583-0.16,0.881c-0.015,0.104-0.035,0.206-0.048,0.31
				c-0.044,0.396-0.07,0.796-0.07,1.202v18.837c0,24.475,18.562,44.748,42.546,47.9v242.386c0,25.534,20.773,46.304,46.304,46.304
				h227.392c25.532,0,46.304-20.771,46.304-46.304V223.342c24.097-3.051,42.785-23.375,42.785-47.932v-18.837
				C458.666,156.164,458.637,155.762,458.593,155.366z M117.212,46.304c0-13.769,11.202-24.971,24.971-24.971h227.392
				c13.768,0,24.971,11.202,24.971,24.971v17.692h-46.386h-61.442h-61.442h-61.436H117.21L117.212,46.304z M307.999,145.906h-3.888
				l-5.679-60.577h41.646l20.454,72.717v17.364c0,14.892-12.442,27.006-27.733,27.006c-15.294,0-27.733-12.114-27.733-27.006v-8.171
				h2.933c5.89,0,10.667-4.775,10.667-10.667C318.666,150.684,313.889,145.906,307.999,145.906z M254.879,167.239h28.853v8.171
				c0,14.892-12.442,27.006-27.735,27.006c-15.29,0-27.731-12.114-27.731-27.006v-18.337l6.725-71.744h42.015l5.679,60.577h-27.806
				c-5.891,0-10.667,4.778-10.667,10.667C244.212,162.464,248.988,167.239,254.879,167.239z M151.465,167.24h31.572
				c5.891,0,10.667-4.776,10.667-10.667c0-5.889-4.775-10.667-10.667-10.667h-28.158l17.04-60.577h41.646l-6.583,70.247
				c-0.031,0.332-0.048,0.665-0.048,0.996v18.837c0,14.892-12.442,27.006-27.733,27.006c-15.294,0-27.735-12.114-27.735-27.006
				V167.24z M113.022,85.329h36.735l-17.04,60.577H81.559L113.022,85.329z M102.397,202.416
				c-15.292,0.001-27.731-12.114-27.731-27.006v-8.171h55.465v8.171C130.13,190.302,117.691,202.416,102.397,202.416z
				 M394.545,405.338H180.426c-5.889,0-10.667,4.777-10.667,10.667c0,5.891,4.778,10.667,10.667,10.667h214.118v39.025
				c0.001,13.769-11.201,24.971-24.97,24.971H142.182c-13.769,0-24.971-11.202-24.971-24.971V221.493
				c9.402-2.94,17.576-8.604,23.585-16.044c8.998,11.139,22.863,18.3,38.402,18.3s29.404-7.161,38.4-18.3
				c8.996,11.139,22.861,18.3,38.398,18.3c15.539,0,29.405-7.161,38.402-18.3c8.996,11.139,22.861,18.3,38.4,18.3
				c15.539,0,29.404-7.161,38.4-18.3c5.956,7.375,14.046,13.002,23.346,15.965V405.338z M437.332,175.411
				c0,14.891-12.442,27.006-27.735,27.006c-15.29,0-27.731-12.114-27.731-27.006v-18.837c0-0.975-0.133-1.948-0.398-2.887
				L362.241,85.33h36.509l31.644,60.577h-13.34c-5.891,0-10.667,4.778-10.667,10.667c0,5.891,4.775,10.667,10.667,10.667h20.278
				V175.411z"/>
			<path d="M213.212,261.211h-64c-5.889,0-10.667,4.775-10.667,10.667v63.998c0,5.889,4.777,10.667,10.667,10.667h64
				c5.889,0,10.667-4.778,10.667-10.667v-63.998C223.878,265.986,219.101,261.211,213.212,261.211z M202.545,325.209h-42.667
				v-42.665h42.667V325.209z"/>
			<path d="M362.543,261.211H255.881c-5.889,0-10.667,4.775-10.667,10.667c0,5.889,4.776,10.667,10.667,10.667h106.662
				c5.89,0,10.667-4.776,10.667-10.667C373.21,265.986,368.433,261.211,362.543,261.211z"/>
			<path d="M362.543,303.875h-6.4c-5.889,0-10.667,4.777-10.667,10.667c0,5.891,4.778,10.667,10.667,10.667h6.4
				c5.89,0,10.667-4.775,10.667-10.667C373.21,308.652,368.432,303.875,362.543,303.875z"/>
			<path d="M317.743,325.209c5.89,0,10.667-4.775,10.667-10.667c0-5.89-4.777-10.667-10.667-10.667h-61.862
				c-5.889,0-10.667,4.777-10.667,10.667c0,5.891,4.776,10.667,10.667,10.667H317.743z"/>
			<path d="M262.281,346.544h-6.4c-5.889,0-10.667,4.778-10.667,10.667c0,5.891,4.776,10.667,10.667,10.667h6.4
				c5.889,0,10.667-4.775,10.667-10.667C272.947,351.322,268.17,346.544,262.281,346.544z"/>
			<path d="M362.543,346.544h-61.865c-5.889,0-10.667,4.778-10.667,10.667c0,5.891,4.778,10.667,10.667,10.667h61.865
				c5.89,0,10.667-4.775,10.667-10.667C373.21,351.321,368.432,346.544,362.543,346.544z"/>
			<path d="M147.243,405.338h-6.402c-5.889,0-10.667,4.776-10.667,10.667c0,5.891,4.778,10.667,10.667,10.667h6.402
				c5.891,0,10.667-4.775,10.667-10.667C157.909,410.114,153.134,405.338,147.243,405.338z"/>
		</g>
	</g>
</g>
<g>
</g>
<g>
</g>
<g>
</g>
<g>
</g>
<g>
</g>
<g>
</g>
<g>
</g>
<g>
</g>
<g>
</g>
<g>
</g>
<g>
</g>
<g>
</g>
<g>
</g>
<g>
</g>
<g>
</g>
</svg>
