<?xml version="1.0" encoding="iso-8859-1"?>
<!-- Generator: Adobe Illustrator 19.0.0, SVG Export Plug-In . SVG Version: 6.00 Build 0)  -->
<svg version="1.1" id="Layer_1" xmlns="http://www.w3.org/2000/svg" xmlns:xlink="http://www.w3.org/1999/xlink" x="0px" y="0px"
	 viewBox="0 0 512 512" style="enable-background:new 0 0 512 512;" xml:space="preserve">
<g>
	<g>
		<g>
			<path d="M362.667,490.667l-213.333-0.004c-5.891,0-10.667,4.775-10.667,10.667c0,5.89,4.775,10.667,10.667,10.667L362.667,512
				c5.89,0,10.667-4.775,10.667-10.667S368.56,490.667,362.667,490.667z"/>
			<path d="M426.046,389.84l-61.523-172.569c16.031-14.787,25.515-34.103,26.914-55.134c1.475-22.168-6.319-44.305-21.482-61.413
				c0.479-28.894,5.843-52.958,10.194-72.466c1.213-5.443,2.361-10.585,3.34-15.513c0.621-3.132-0.192-6.378-2.219-8.846
				c-2.025-2.469-5.05-3.9-8.243-3.9h-36.811c-4.831,0-9.058,3.246-10.306,7.914c-11.084,41.483-27.263,81.521-69.91,94.453
				c-42.65-12.933-58.829-52.972-69.912-94.453C184.841,3.246,180.614,0,175.782,0h-36.808c-3.194,0-6.219,1.43-8.245,3.899
				c-2.025,2.468-2.839,5.714-2.217,8.846c0.979,4.928,2.125,10.069,3.34,15.513c4.35,19.508,9.714,43.572,10.194,72.466
				c-15.165,17.108-22.957,39.245-21.482,61.413c1.398,21.029,10.883,40.347,26.912,55.134L85.953,389.84
				c-1.927,5.404,0.767,11.363,6.096,13.489c37.177,14.83,96.873,23.336,163.781,23.336c67.129,0,126.948-8.507,164.122-23.336
				C425.282,401.202,427.974,395.244,426.046,389.84z M255.83,405.333c-18.775,0-37.095-0.721-54.485-2.084l6.47-43.019
				c0.875-5.825-3.137-11.259-8.962-12.134c-5.831-0.879-11.259,3.136-12.133,8.961l-6.64,44.15
				c-27.385-3.137-51.627-7.971-70.47-14.193l56.496-158.469c6.516,2.153,13.842,3.309,21.421,3.309
				c0.964,0,1.934-0.018,2.905-0.055c5.888-0.227,10.475-5.183,10.247-11.07c-0.227-5.887-5.15-10.475-11.071-10.247
				c-8.953,0.351-17.865-1.652-23.348-5.223c-14.594-11.487-23.263-27.286-24.411-44.536c-1.169-17.565,5.578-35.192,18.509-48.363
				c1.958-1.995,3.054-4.677,3.054-7.473c0-33.104-5.954-59.811-10.739-81.27c-0.171-0.767-0.339-1.527-0.509-2.282h15.491
				c5.065,17.802,11.9,37.421,23.027,55.031c13.854,21.923,32.221,36.987,54.652,44.916v23.236c0,5.891,4.775,10.667,10.667,10.667
				c5.889,0,10.667-4.775,10.667-10.667v-23.236c22.431-7.931,40.798-22.993,54.649-44.916
				c11.127-17.611,17.963-37.23,23.027-55.031h15.491c-0.166,0.754-0.337,1.515-0.509,2.282
				c-4.783,21.459-10.739,48.166-10.739,81.27c0,2.796,1.098,5.478,3.056,7.473c12.931,13.17,19.677,30.798,18.507,48.363
				c-1.146,17.25-9.814,33.048-24.409,44.536c-5.482,3.57-14.383,5.572-23.35,5.223c-5.925-0.211-10.844,4.362-11.071,10.247
				c-0.227,5.887,4.361,10.843,10.247,11.07c0.973,0.037,1.939,0.055,2.904,0.055c7.579,0,14.905-1.155,21.421-3.309l56.498,158.468
				C367.417,398.557,313.774,405.333,255.83,405.333z"/>
			<path d="M256.001,172.251c-5.891,0-10.667,4.776-10.667,10.667v6.4c0,5.891,4.775,10.667,10.667,10.667
				c5.889,0,10.667-4.775,10.667-10.667v-6.4C266.668,177.027,261.891,172.251,256.001,172.251z"/>
			<path d="M204.868,308.091c-5.834-0.878-11.259,3.138-12.133,8.964l-0.927,6.18c-0.875,5.826,3.137,11.258,8.962,12.133
				c0.538,0.081,1.071,0.119,1.598,0.119c5.191,0,9.742-3.795,10.535-9.084l0.927-6.18
				C214.705,314.397,210.693,308.966,204.868,308.091z"/>
		</g>
	</g>
</g>
<g>
</g>
<g>
</g>
<g>
</g>
<g>
</g>
<g>
</g>
<g>
</g>
<g>
</g>
<g>
</g>
<g>
</g>
<g>
</g>
<g>
</g>
<g>
</g>
<g>
</g>
<g>
</g>
<g>
</g>
</svg>
