<?xml version="1.0" encoding="iso-8859-1"?>
<!-- Generator: Adobe Illustrator 19.0.0, SVG Export Plug-In . SVG Version: 6.00 Build 0)  -->
<svg version="1.1" id="Layer_1" xmlns="http://www.w3.org/2000/svg" xmlns:xlink="http://www.w3.org/1999/xlink" x="0px" y="0px"
	 viewBox="0 0 512 512" style="enable-background:new 0 0 512 512;" xml:space="preserve">
<g>
	<g>
		<g>
			<path d="M103.979,88.617h-6.4c-5.891,0-10.667,4.775-10.667,10.667s4.776,10.667,10.667,10.667h6.4
				c5.89,0,10.667-4.776,10.667-10.667S109.87,88.617,103.979,88.617z"/>
			<path d="M469.333,281.944V99.284c0-0.014-0.002-0.027-0.002-0.042V10.667C469.331,4.775,464.554,0,458.664,0H53.334
				c-5.89,0-10.667,4.776-10.667,10.667v88.617v182.66c0,5.891,4.777,10.667,10.667,10.667h56.616L55.857,490.664h-2.524
				c-5.89,0-10.667,4.776-10.667,10.667c0,5.89,4.777,10.667,10.667,10.667h10.668h21.679h35.054c5.89,0,10.667-4.777,10.667-10.667
				c0-5.891-4.777-10.667-10.667-10.667h-18.3l92.492-198.053h122.149l92.491,198.053l-43.045,0.002
				c-5.891,0-10.667,4.776-10.667,10.667c0,5.89,4.777,10.667,10.667,10.667l92.144-0.002c5.891,0,10.667-4.777,10.667-10.667
				c0-5.891-4.777-10.667-10.667-10.667h-2.521l-54.093-198.053h56.614C464.556,292.611,469.333,287.835,469.333,281.944z
				 M78.89,490.664h-0.917l54.092-198.053h39.317L78.89,490.664z M434.03,490.664h-0.919l-92.49-198.053h39.317L434.03,490.664z
				 M447.998,228.615h-51.452c-5.89,0-10.667,4.775-10.667,10.667s4.777,10.667,10.667,10.667h51.452v21.329h-59.917v0h-64.215
				H188.136h-64.215H64V99.284v-77.95h383.997v67.284H309.333H204.5h-1.834H142.38c-5.89,0-10.667,4.775-10.667,10.667
				s4.777,10.667,10.667,10.667h52.675l12.198,35.471c1.481,4.307,5.533,7.198,10.086,7.198h77.322
				c4.555,0,8.606-2.891,10.086-7.198l12.197-35.471h131.052V228.615z M294.388,109.951l-7.338,21.336h-62.1l-7.337-21.336H294.388z
				"/>
			<path d="M351.746,249.948h6.4c5.891,0,10.667-4.776,10.667-10.667s-4.777-10.667-10.667-10.667h-6.4
				c-5.89,0-10.667,4.776-10.667,10.667S345.856,249.948,351.746,249.948z"/>
			<path d="M334.69,490.664h-5.677c-5.89,0-10.667,4.776-10.667,10.667c0,5.89,4.777,10.667,10.667,10.667h5.677
				c5.89,0,10.667-4.777,10.667-10.667C345.357,495.44,340.58,490.664,334.69,490.664z"/>
		</g>
	</g>
</g>
<g>
</g>
<g>
</g>
<g>
</g>
<g>
</g>
<g>
</g>
<g>
</g>
<g>
</g>
<g>
</g>
<g>
</g>
<g>
</g>
<g>
</g>
<g>
</g>
<g>
</g>
<g>
</g>
<g>
</g>
</svg>
