<?xml version="1.0" encoding="iso-8859-1"?>
<!-- Generator: Adobe Illustrator 19.0.0, SVG Export Plug-In . SVG Version: 6.00 Build 0)  -->
<svg version="1.1" id="Layer_1" xmlns="http://www.w3.org/2000/svg" xmlns:xlink="http://www.w3.org/1999/xlink" x="0px" y="0px"
	 viewBox="0 0 512 512" style="enable-background:new 0 0 512 512;" xml:space="preserve">
<g>
	<g>
		<g>
			<path d="M458.667,0H53.333c-5.89,0-10.667,4.775-10.667,10.667v490.667c0,5.891,4.777,10.667,10.667,10.667h405.334
				c5.89,0,10.667-4.775,10.667-10.667V10.667C469.333,4.775,464.557,0,458.667,0z M448,490.667H64V21.333h384V490.667z"/>
			<path d="M95.998,170.666h320.001c5.89,0,10.667-4.775,10.667-10.667V53.331c0-5.891-4.776-10.667-10.667-10.667H95.998
				c-5.89,0-10.667,4.775-10.667,10.667V160C85.331,165.891,90.108,170.666,95.998,170.666z M405.333,63.998v85.335H284.76
				l85.335-85.335H405.333z M106.664,63.998h173.024l-13.029,13.027c-4.166,4.165-4.166,10.919-0.001,15.085
				c2.083,2.083,4.813,3.124,7.542,3.124c2.73,0,5.459-1.042,7.541-3.124l28.115-28.113h30.067l-85.334,85.336H106.664V63.998z"/>
			<path d="M415.999,192.001H309.333H202.666H96.001c-5.89,0-10.667,4.775-10.667,10.667v127.999v128.003
				c0,5.891,4.776,10.667,10.667,10.667h106.665h106.666h106.666c5.89,0,10.667-4.775,10.667-10.667V202.667
				C426.666,196.776,421.889,192.001,415.999,192.001z M192,448.002h-85.332v-106.67H192V448.002z M192,319.999h-85.332V213.334H192
				V319.999z M298.666,448.002h-85.333v-106.67h85.333V448.002z M298.666,319.999h-85.333V213.334h85.333V319.999z M405.333,448.002
				h-85.333V213.334h85.333V448.002z"/>
			<path d="M127.999,277.333h10.669v10.666c0,5.891,4.775,10.667,10.667,10.667c5.89,0,10.667-4.775,10.667-10.667v-10.666h10.665
				c5.89,0,10.667-4.775,10.667-10.667c0-5.891-4.777-10.667-10.667-10.667h-10.665v-10.668c0-5.891-4.776-10.667-10.667-10.667
				c-5.891,0-10.667,4.775-10.667,10.667v10.668h-10.669c-5.89,0-10.667,4.775-10.667,10.667
				C117.332,272.557,122.109,277.333,127.999,277.333z"/>
			<path d="M234.667,277.335h42.667c5.89,0,10.667-4.775,10.667-10.667s-4.777-10.667-10.667-10.667h-42.667
				c-5.891,0-10.667,4.775-10.667,10.667S228.777,277.335,234.667,277.335z"/>
			<path d="M240.913,394.668l-7.542,7.543c-4.163,4.165-4.163,10.919,0.002,15.085c2.083,2.083,4.813,3.124,7.542,3.124
				c2.73,0,5.459-1.042,7.542-3.124l7.542-7.542l7.542,7.542c2.083,2.083,4.813,3.124,7.542,3.124s5.459-1.042,7.542-3.124
				c4.165-4.165,4.165-10.919,0-15.085l-7.542-7.543l7.542-7.543c4.165-4.165,4.165-10.919,0-15.085
				c-4.166-4.165-10.918-4.165-15.086,0.001l-7.542,7.542l-7.542-7.542c-4.164-4.165-10.916-4.165-15.086-0.001
				c-4.165,4.165-4.165,10.919,0,15.085L240.913,394.668z"/>
			<path d="M134.248,420.42c2.731,0,5.459-1.042,7.542-3.124l30.171-30.172c4.165-4.165,4.165-10.919,0-15.085
				c-4.166-4.165-10.918-4.165-15.086,0.001l-30.171,30.172c-4.165,4.165-4.165,10.919,0,15.085
				C128.789,419.379,131.519,420.42,134.248,420.42z"/>
			<path d="M341.334,319.999H384c5.89,0,10.667-4.775,10.667-10.667c0-5.891-4.777-10.667-10.667-10.667h-42.667
				c-5.89,0-10.667,4.775-10.667,10.667C330.667,315.224,335.444,319.999,341.334,319.999z"/>
			<path d="M341.334,362.667H384c5.89,0,10.667-4.775,10.667-10.667c0-5.891-4.777-10.667-10.667-10.667h-42.667
				c-5.89,0-10.667,4.775-10.667,10.667C330.667,357.892,335.444,362.667,341.334,362.667z"/>
			<path d="M259.117,114.739c4.166-4.165,4.166-10.918,0.001-15.085c-4.163-4.164-10.918-4.166-15.085,0l-4.525,4.525
				c-4.166,4.165-4.166,10.918-0.001,15.085c2.082,2.083,4.813,3.124,7.542,3.124s5.459-1.041,7.541-3.124L259.117,114.739z"/>
		</g>
	</g>
</g>
<g>
</g>
<g>
</g>
<g>
</g>
<g>
</g>
<g>
</g>
<g>
</g>
<g>
</g>
<g>
</g>
<g>
</g>
<g>
</g>
<g>
</g>
<g>
</g>
<g>
</g>
<g>
</g>
<g>
</g>
</svg>
