<?xml version="1.0" encoding="iso-8859-1"?>
<!-- Generator: Adobe Illustrator 19.0.0, SVG Export Plug-In . SVG Version: 6.00 Build 0)  -->
<svg version="1.1" id="Layer_1" xmlns="http://www.w3.org/2000/svg" xmlns:xlink="http://www.w3.org/1999/xlink" x="0px" y="0px"
	 viewBox="0 0 512 512" style="enable-background:new 0 0 512 512;" xml:space="preserve">
<g>
	<g>
		<g>
			<path d="M462.328,393.213c-17.404-6.361-32.918-16.275-46.114-29.469c-1.516-1.517-2.997-3.073-4.438-4.667
				c37.194-39.65,57.558-91.025,57.558-145.742C469.332,95.702,373.633,0,256,0S42.667,95.702,42.667,213.335
				c0,117.631,95.701,213.331,213.333,213.331c27.414,0,54.045-5.115,79.235-15.211c20.25,9.965,42.778,15.211,65.481,15.211
				c21.786,0,42.795-4.631,62.446-13.762c3.911-1.819,6.343-5.814,6.161-10.125C469.141,398.469,466.38,394.693,462.328,393.213z
				 M400.716,405.333c-20.914,0-41.647-5.194-59.956-15.021c-1.571-0.844-3.306-1.269-5.044-1.269c-1.427,0-2.857,0.288-4.201,0.863
				c-23.893,10.236-49.299,15.427-75.515,15.427c-105.869,0-192-86.131-192-191.998c0-105.871,86.131-192.002,192-192.002
				s191.999,86.131,191.999,192.002c0,52.232-20.621,101.08-58.063,137.544c-3.898,3.796-4.315,9.917-0.966,14.204
				c3.742,4.796,7.833,9.419,12.158,13.746c8.97,8.969,18.86,16.64,29.573,22.953C420.963,404.144,410.941,405.333,400.716,405.333z
				"/>
			<path d="M256,312.864c2.731,0,5.459-1.041,7.542-3.123l70.814-70.813c0.018-0.019,0.054-0.057,0.085-0.087
				c11.453-11.473,17.759-26.719,17.759-42.933c0-16.234-6.321-31.493-17.799-42.971c-11.479-11.479-26.74-17.801-42.973-17.801
				c-12.893,0-25.172,3.987-35.429,11.379c-10.257-7.392-22.537-11.379-35.428-11.379c-16.234,0-31.494,6.321-42.973,17.801
				c-11.479,11.477-17.801,26.737-17.801,42.971c0,16.234,6.322,31.495,17.762,42.935c0.027,0.029,0.055,0.057,0.083,0.085
				l70.814,70.813C250.541,311.823,253.27,312.864,256,312.864z M192.684,223.796c-7.449-7.447-11.552-17.353-11.552-27.888
				c0-10.533,4.102-20.437,11.551-27.886c7.45-7.45,17.355-11.552,27.889-11.552c10.534,0,20.437,4.102,27.886,11.552
				c2,2,4.714,3.123,7.542,3.123s5.542-1.123,7.542-3.123c7.447-7.45,17.353-11.552,27.887-11.552
				c10.534,0,20.438,4.102,27.888,11.552c7.449,7.447,11.551,17.353,11.551,27.886c0,10.535-4.102,20.44-11.551,27.888
				c-0.017,0.019-0.051,0.052-0.081,0.083L256,287.115l-63.233-63.233C192.74,223.852,192.711,223.825,192.684,223.796z"/>
			<path d="M413.448,243.906c-5.698-1.5-11.532,1.9-13.033,7.596C383.17,316.957,323.785,362.669,256,362.669
				c-5.89,0-10.667,4.774-10.667,10.667c0,5.889,4.776,10.667,10.667,10.667c77.464,0,145.332-52.25,165.044-127.065
				C422.545,251.242,419.145,245.406,413.448,243.906z"/>
			<path d="M415.407,230.859c0.154,0.006,0.305,0.011,0.457,0.011c5.684,0,10.409-4.485,10.65-10.219
				c0.102-2.427,0.154-4.89,0.154-7.314c0-5.891-4.777-10.667-10.667-10.667s-10.667,4.775-10.667,10.667
				c0,2.127-0.046,4.286-0.135,6.417C404.95,225.637,409.52,230.61,415.407,230.859z"/>
			<path d="M266.667,53.335c0-5.891-4.777-10.667-10.667-10.667c-77.465,0-145.332,52.25-165.043,127.062
				c-1.501,5.698,1.9,11.532,7.597,13.034c0.911,0.24,1.825,0.354,2.725,0.354c4.726,0,9.046-3.167,10.307-7.952
				C128.832,109.714,188.217,64.002,256,64.002C261.891,64.002,266.667,59.225,266.667,53.335z"/>
			<path d="M96.594,195.806c-5.869-0.247-10.859,4.325-11.105,10.21c-0.102,2.433-0.155,4.896-0.155,7.318
				c0,5.889,4.777,10.667,10.667,10.667s10.667-4.778,10.667-10.667c0-2.125,0.046-4.288,0.135-6.422
				C107.052,201.027,102.481,196.054,96.594,195.806z"/>
			<path d="M362.667,490.667l-213.332-0.004c-5.89,0-10.667,4.778-10.667,10.667c0,5.891,4.776,10.667,10.667,10.667L362.667,512
				c5.89,0,10.667-4.775,10.667-10.667C373.333,495.443,368.559,490.667,362.667,490.667z"/>
		</g>
	</g>
</g>
<g>
</g>
<g>
</g>
<g>
</g>
<g>
</g>
<g>
</g>
<g>
</g>
<g>
</g>
<g>
</g>
<g>
</g>
<g>
</g>
<g>
</g>
<g>
</g>
<g>
</g>
<g>
</g>
<g>
</g>
</svg>
