<?xml version="1.0" encoding="iso-8859-1"?>
<!-- Generator: Adobe Illustrator 19.0.0, SVG Export Plug-In . SVG Version: 6.00 Build 0)  -->
<svg version="1.1" id="Layer_1" xmlns="http://www.w3.org/2000/svg" xmlns:xlink="http://www.w3.org/1999/xlink" x="0px" y="0px"
	 viewBox="0 0 512 512" style="enable-background:new 0 0 512 512;" xml:space="preserve">
<g>
	<g>
		<g>
			<path d="M459.099,213.332c6.735-11.011,9.273-24.113,6.992-37.046c-2.279-12.932-9.146-24.377-19.242-32.42
				c2.564-12.65,0.468-25.83-6.098-37.2c-6.564-11.372-16.929-19.778-29.169-23.884c-1.917-12.766-8.396-24.435-18.455-32.875
				c-9.928-8.328-22.596-12.777-35.574-12.461c-6.169-11.342-16.25-20.092-28.588-24.582c-5.886-2.143-12.021-3.229-18.238-3.229
				c-6.669,0-13.271,1.261-19.456,3.685C281.598,4.776,269.134,0,256,0c-13.135,0-25.599,4.776-35.274,13.322
				c-6.186-2.425-12.786-3.685-19.455-3.685c-6.217,0-12.353,1.087-18.235,3.228c-12.339,4.49-22.42,13.24-28.588,24.582
				c-12.965-0.331-25.65,4.132-35.577,12.462c-10.059,8.44-16.536,20.109-18.453,32.874c-12.237,4.107-22.604,12.512-29.172,23.886
				c-6.563,11.372-8.66,24.551-6.098,37.199c-10.095,8.043-16.96,19.487-19.24,32.42c-2.282,12.932,0.256,26.036,6.992,37.046
				c-6.736,11.009-9.273,24.112-6.993,37.044c2.281,12.932,9.146,24.377,19.241,32.42c-2.562,12.649-0.466,25.83,6.099,37.204
				c6.565,11.372,16.932,19.778,29.169,23.883c1.919,12.762,8.397,24.429,18.456,32.872c9.928,8.329,22.624,12.776,35.577,12.462
				c6.167,11.34,16.247,20.092,28.587,24.584c5.885,2.142,12.019,3.227,18.235,3.227c6.669,0,13.271-1.261,19.457-3.685
				c9.674,8.546,22.139,13.322,35.271,13.324c0,0,0.002,0,0.004,0c13.132-0.002,25.594-4.778,35.268-13.324
				c6.188,2.425,12.789,3.685,19.458,3.685c6.217,0,12.35-1.086,18.236-3.227c12.339-4.492,22.419-13.243,28.588-24.584
				c12.948,0.325,25.648-4.132,35.576-12.463c10.059-8.441,16.536-20.109,18.455-32.871c12.238-4.105,22.604-12.511,29.171-23.884
				c6.562-11.373,8.658-24.553,6.096-37.203c10.096-8.044,16.962-19.488,19.244-32.42
				C468.371,237.444,465.834,224.34,459.099,213.332z M445.081,246.671c-1.668,9.467-7.438,17.607-15.827,22.334
				c-4.581,2.582-6.597,8.12-4.748,13.045c3.388,9.012,2.573,18.957-2.232,27.281c-4.806,8.325-13.01,14.002-22.509,15.574
				c-5.189,0.86-8.979,5.374-8.923,10.635c0.1,9.626-4.067,18.691-11.429,24.871c-5.755,4.827-13.05,7.486-20.546,7.486
				c-1.985,0-3.981-0.185-5.932-0.55c-5.171-0.971-10.275,1.978-12.023,6.941c-3.2,9.082-10.215,16.176-19.246,19.464
				c-8.981,3.267-19.075,2.297-27.257-2.539c-4.531-2.68-10.332-1.654-13.671,2.411c-6.11,7.438-15.128,11.706-24.739,11.708
				c-9.614-0.002-18.633-4.27-24.746-11.71c-2.09-2.542-5.143-3.893-8.246-3.893c-1.855,0-3.728,0.483-5.423,1.485
				c-8.179,4.835-18.279,5.804-27.253,2.54c-9.032-3.289-16.046-10.383-19.246-19.465c-1.748-4.96-6.854-7.904-12.021-6.942
				c-1.952,0.367-3.949,0.551-5.935,0.551c-7.495,0-14.791-2.659-20.544-7.485c-7.363-6.18-11.531-15.247-11.43-24.872
				c0.055-5.261-3.733-9.775-8.923-10.635c-9.499-1.572-17.704-7.249-22.509-15.572c-4.805-8.328-5.62-18.271-2.234-27.284
				c1.85-4.925-0.165-10.463-4.749-13.045c-8.387-4.726-14.155-12.867-15.824-22.334c-1.668-9.466,0.966-19.087,7.232-26.396
				c3.424-3.995,3.424-9.889,0-13.884c-6.266-7.31-8.901-16.932-7.232-26.399c1.669-9.467,7.438-17.607,15.824-22.334
				c4.584-2.582,6.6-8.121,4.749-13.044c-3.387-9.012-2.573-18.956,2.233-27.279c4.807-8.325,13.012-14.002,22.511-15.576
				c5.189-0.86,8.978-5.374,8.923-10.635c-0.1-9.63,4.066-18.696,11.427-24.873c5.755-4.828,13.05-7.487,20.543-7.487
				c1.985,0,3.982,0.186,5.934,0.551c5.179,0.967,10.277-1.978,12.024-6.941c3.2-9.083,10.213-16.176,19.247-19.463
				c8.973-3.269,19.071-2.3,27.251,2.538c4.529,2.678,10.332,1.652,13.671-2.411C237.367,25.6,246.386,21.334,256,21.334
				c9.613,0,18.63,4.267,24.739,11.705c3.338,4.065,9.139,5.088,13.671,2.412c8.179-4.836,18.273-5.808,27.257-2.537
				c9.034,3.286,16.048,10.379,19.248,19.462c1.748,4.962,6.852,7.912,12.024,6.941c1.95-0.365,3.946-0.55,5.931-0.55
				c7.493,0,14.789,2.658,20.544,7.486c7.362,6.178,11.53,15.244,11.43,24.873c-0.057,5.261,3.733,9.775,8.923,10.635
				c9.498,1.573,17.705,7.249,22.509,15.575c4.806,8.323,5.619,18.267,2.234,27.279c-1.852,4.925,0.164,10.463,4.748,13.045
				c8.387,4.726,14.156,12.867,15.825,22.333c1.668,9.468-0.966,19.089-7.233,26.401c-3.423,3.994-3.421,9.888,0.002,13.882
				C444.115,227.583,446.751,237.205,445.081,246.671z"/>
			<path d="M299.126,81.543c5.596,1.831,11.622-1.222,13.454-6.821c1.832-5.599-1.222-11.623-6.821-13.455
				c-26.663-8.722-55.259-10.282-82.7-4.509c-70.738,14.882-122.89,75.687-126.826,147.869c-0.321,5.883,4.189,10.911,10.071,11.232
				c0.198,0.011,0.394,0.016,0.59,0.016c5.625,0,10.332-4.402,10.642-10.086c3.41-62.557,48.608-115.257,109.916-128.154
				C251.236,72.632,276.017,73.983,299.126,81.543z"/>
			<path d="M405.693,210.803c-5.89-0.317-10.911,4.188-11.231,10.07c-3.41,62.556-48.609,115.255-109.916,128.153
				c-23.786,5.004-48.569,3.654-71.672-3.907c-5.596-1.833-11.622,1.221-13.455,6.82c-1.833,5.599,1.221,11.624,6.82,13.455
				c16.114,5.274,32.938,7.931,49.787,7.931c11.023,0,22.059-1.137,32.913-3.422c70.74-14.881,122.891-75.687,126.826-147.868
				C416.085,216.153,411.575,211.124,405.693,210.803z"/>
			<path d="M119.899,239.891c-1.132-5.781-6.729-9.555-12.515-8.421c-5.781,1.13-9.552,6.734-8.422,12.515
				c0.578,2.955,1.255,5.961,2.014,8.937c1.23,4.825,5.568,8.035,10.33,8.035c0.871,0,1.758-0.108,2.642-0.333
				c5.709-1.455,9.156-7.262,7.702-12.971C120.987,245.063,120.4,242.452,119.899,239.891z"/>
			<path d="M392.099,186.771c0.994,5.091,5.456,8.624,10.457,8.624c0.679,0,1.366-0.065,2.059-0.201
				c5.781-1.13,9.552-6.733,8.424-12.514c-0.581-2.972-1.261-5.981-2.017-8.945c-1.458-5.707-7.263-9.151-12.977-7.693
				c-5.707,1.459-9.152,7.268-7.692,12.976C391.008,181.589,391.595,184.197,392.099,186.771z"/>
			<path d="M362.666,490.666H149.329c-5.89,0-10.667,4.776-10.667,10.667c0,5.89,4.777,10.667,10.667,10.667h213.337
				c5.89,0,10.667-4.777,10.667-10.667C373.332,495.442,368.556,490.666,362.666,490.666z"/>
			<path d="M199.452,281.979c-0.947,4.161,0.679,8.486,4.131,10.995c1.862,1.354,4.063,2.036,6.271,2.036
				c1.885,0,3.775-0.498,5.464-1.505l40.683-24.266l40.682,24.266c3.665,2.187,8.28,1.978,11.733-0.531
				c3.452-2.509,5.079-6.833,4.131-10.995l-10.503-46.194l35.646-31.192c3.213-2.811,4.44-7.265,3.121-11.324
				c-1.318-4.059-4.929-6.941-9.179-7.327l-47.177-4.284l-18.65-43.541c-1.679-3.923-5.537-6.466-9.804-6.466
				c-4.269,0-8.125,2.544-9.806,6.466l-18.651,43.541l-47.174,4.284c-4.25,0.386-7.861,3.267-9.18,7.327
				c-1.318,4.059-0.092,8.512,3.12,11.323l35.647,31.197L199.452,281.979z M207.096,204.937l28.712-2.607
				c3.903-0.354,7.297-2.82,8.841-6.422l11.353-26.498l11.351,26.498c1.544,3.602,4.938,6.068,8.84,6.422l28.713,2.607
				l-21.694,18.983c-2.95,2.58-4.245,6.572-3.377,10.393l6.392,28.114l-24.759-14.768c-1.683-1.004-3.576-1.506-5.465-1.506
				c-1.891,0-3.781,0.502-5.465,1.506l-24.76,14.767l6.393-28.108c0.868-3.822-0.427-7.811-3.376-10.393L207.096,204.937z"/>
		</g>
	</g>
</g>
<g>
</g>
<g>
</g>
<g>
</g>
<g>
</g>
<g>
</g>
<g>
</g>
<g>
</g>
<g>
</g>
<g>
</g>
<g>
</g>
<g>
</g>
<g>
</g>
<g>
</g>
<g>
</g>
<g>
</g>
</svg>
