<?xml version="1.0" encoding="iso-8859-1"?>
<!-- Generator: Adobe Illustrator 19.0.0, SVG Export Plug-In . SVG Version: 6.00 Build 0)  -->
<svg version="1.1" id="Layer_1" xmlns="http://www.w3.org/2000/svg" xmlns:xlink="http://www.w3.org/1999/xlink" x="0px" y="0px"
	 viewBox="0 0 512.001 512.001" style="enable-background:new 0 0 512.001 512.001;" xml:space="preserve">
<g>
	<g>
		<g>
			<path d="M452.541,179.43l-54.739-54.738c-25.38-25.38-59.254-39.358-95.38-39.358c-32.523,0-63.218,11.334-87.537,32.113
				l-7.844-7.842c-12.471-12.477-32.773-12.477-45.256-0.001l-11.001,11.001c-4.255-2.036-8.945-3.114-13.802-3.114
				c-8.547,0-16.584,3.328-22.629,9.373c-5.785,5.786-8.881,13.256-9.3,20.847c-7.886,0.424-15.24,3.694-20.867,9.32
				c-9.83,9.833-11.907,24.522-6.244,36.415l-11.014,11.017c-6.027,6.027-9.347,14.064-9.347,22.627
				c0,8.565,3.32,16.601,9.347,22.626l7.842,7.844c-20.78,24.318-32.115,55.014-32.115,87.539c0,36.126,13.977,70,39.357,95.381
				l54.741,54.738c0.835,0.835,1.699,1.631,2.577,2.409c-0.429,1.155-0.675,2.4-0.675,3.705c0,5.89,4.776,10.667,10.667,10.667
				h28.01c0.021,0,0.043,0.002,0.064,0.002c0.021,0,0.042-0.002,0.063-0.002l185.197,0.004c5.89,0,10.667-4.775,10.667-10.667
				c0-5.89-4.775-10.667-10.667-10.667l-140.065-0.003l229.953-229.95C474.95,238.305,474.95,201.843,452.541,179.43z
				 M165.856,135.702l11.012-11.012c4.16-4.16,10.928-4.16,15.087,0l7.542,7.539l-39.821,39.821
				C169.45,162.216,171.508,147.568,165.856,135.702z M159.542,172.187l-30.064,30.064c5.762-5.782,8.849-13.236,9.267-20.812
				C146.598,181.017,153.923,177.771,159.542,172.187z M129.44,141.947c2.015-2.015,4.693-3.124,7.544-3.124
				c2.848,0,5.525,1.108,7.537,3.117c0.002,0.002,0.003,0.004,0.005,0.006c0.001,0.002,0.003,0.003,0.005,0.004
				c4.155,4.161,4.153,10.927-0.003,15.084c-2.015,2.014-4.693,3.123-7.545,3.123c-2.823,0-5.479-1.091-7.485-3.069
				c-0.02-0.019-0.038-0.042-0.059-0.062c-0.018-0.017-0.035-0.032-0.052-0.05C125.287,152.811,125.302,146.086,129.44,141.947z
				 M99.272,172.115c2.014-2.014,4.692-3.123,7.542-3.123c2.823,0,5.479,1.091,7.486,3.069c0.019,0.021,0.037,0.042,0.058,0.062
				c0.018,0.018,0.035,0.033,0.053,0.051c4.102,4.164,4.085,10.89-0.052,15.028c-2.015,2.015-4.693,3.124-7.543,3.124
				c-2.841,0-5.51-1.103-7.521-3.103c-0.007-0.008-0.014-0.017-0.021-0.023c-0.006-0.006-0.014-0.012-0.02-0.018
				C95.115,183.018,95.122,176.266,99.272,172.115z M82.013,219.547l11.001-11.001c4.253,2.036,8.943,3.114,13.801,3.114
				c8.529,0,16.55-3.315,22.592-9.337l-39.85,39.851l-7.546-7.546c-1.997-1.997-3.097-4.674-3.097-7.539
				C78.915,224.223,80.015,221.544,82.013,219.547z M437.458,245.628L202.95,480.133c-6.775,6.777-15.827,10.514-25.492,10.529
				h-0.127c-9.666-0.016-18.716-3.753-25.491-10.53l-54.742-54.739c-21.352-21.352-33.109-49.867-33.109-80.295
				c0-30.429,11.759-58.945,33.112-80.295l125.025-125.027c21.353-21.353,49.869-33.111,80.297-33.111
				c30.427,0,58.943,11.758,80.294,33.111l54.739,54.737C451.548,208.608,451.549,231.537,437.458,245.628z"/>
			<path d="M127.267,395.224c-27.639-27.641-27.64-72.614,0-100.252c4.165-4.165,4.165-10.92,0-15.086
				c-4.166-4.164-10.918-4.164-15.086,0c-35.956,35.956-35.956,94.464,0,130.423l29.118,29.119c2.083,2.082,4.813,3.124,7.542,3.124
				s5.459-1.042,7.542-3.124c4.165-4.165,4.165-10.919,0-15.086L127.267,395.224z"/>
			<path d="M178.329,446.288c-4.17-4.165-10.922-4.161-15.086,0.006c-4.163,4.168-4.16,10.922,0.006,15.086l3.675,3.672
				c2.083,2.08,4.812,3.121,7.539,3.121c2.732,0,5.462-1.043,7.546-3.127c4.163-4.168,4.16-10.922-0.006-15.086L178.329,446.288z"/>
			<path d="M367.633,154.86c-25.046-25.049-62.943-33.47-96.542-21.455c-5.547,1.983-8.435,8.089-6.452,13.635
				c1.983,5.548,8.094,8.431,13.635,6.452c25.873-9.251,55.026-2.795,74.273,16.453l54.742,54.738
				c2.083,2.082,4.813,3.124,7.542,3.124c2.731,0,5.46-1.042,7.542-3.124c4.165-4.166,4.165-10.919,0-15.086L367.633,154.86z"/>
			<path d="M240.621,151.619c-1.185,1.07-2.337,2.163-3.42,3.25c-4.161,4.17-4.154,10.924,0.016,15.085
				c2.082,2.078,4.809,3.117,7.534,3.117c2.734,0,5.467-1.045,7.55-3.133c0.825-0.826,1.707-1.664,2.618-2.487
				c4.372-3.948,4.716-10.692,0.767-15.065C251.737,148.012,244.991,147.669,240.621,151.619z"/>
			<path d="M95.989,106.663c29.407,0,53.331-23.924,53.331-53.331S125.396,0,95.989,0C66.581,0,42.655,23.924,42.655,53.331
				S66.58,106.663,95.989,106.663z M95.989,21.333c17.644,0,31.998,14.354,31.998,31.998s-14.354,31.998-31.998,31.998
				c-17.645,0-32-14.354-32-31.998S78.344,21.333,95.989,21.333z"/>
		</g>
	</g>
</g>
<g>
</g>
<g>
</g>
<g>
</g>
<g>
</g>
<g>
</g>
<g>
</g>
<g>
</g>
<g>
</g>
<g>
</g>
<g>
</g>
<g>
</g>
<g>
</g>
<g>
</g>
<g>
</g>
<g>
</g>
</svg>
