<?xml version="1.0" encoding="iso-8859-1"?>
<!-- Generator: Adobe Illustrator 19.0.0, SVG Export Plug-In . SVG Version: 6.00 Build 0)  -->
<svg version="1.1" id="Layer_1" xmlns="http://www.w3.org/2000/svg" xmlns:xlink="http://www.w3.org/1999/xlink" x="0px" y="0px"
	 viewBox="0 0 512 512" style="enable-background:new 0 0 512 512;" xml:space="preserve">
<g>
	<g>
		<g>
			<path d="M452.366,408.419l24.317-24.316c1.225-0.885,2.287-2.036,3.07-3.444c32.767-58.815,40.888-127.219,22.867-192.61
				c-18.041-65.463-60.146-120.086-118.56-153.812C325.048,0.167,256.057-8.815,189.793,8.938
				C123.527,26.693,68.272,68.97,34.203,127.982c-34.071,59.01-43.054,128.003-25.3,194.267
				c17.756,66.265,60.033,121.521,119.042,155.59c8.205,4.737,16.656,8.997,25.3,12.774h-3.955c-5.894,0-10.672,4.778-10.672,10.672
				c0,5.893,4.778,10.672,10.672,10.672l105.865,0.001c0.044,0,0.085,0.001,0.127,0.001c0.021,0,0.039,0,0.059,0
				c0.044,0,0.085-0.001,0.129-0.001l107.249,0.001c5.894,0,10.672-4.779,10.672-10.672s-4.778-10.672-10.672-10.672h-4.605
				c7.149-3.095,14.164-6.514,21.02-10.253c1.359-0.527,2.618-1.324,3.683-2.388l25.57-25.571l56.436,56.437
				c2.001,2.001,4.715,3.126,7.545,3.126s5.544-1.125,7.547-3.126l28.888-28.889c4.168-4.167,4.168-10.924,0-15.093L452.366,408.419
				z M138.616,459.356c-54.073-31.219-92.818-81.872-109.097-142.63c-16.279-60.759-8.052-123.999,23.168-178.072
				c31.218-54.074,81.872-92.82,142.63-109.098c60.754-16.281,123.997-8.054,178.071,23.167
				c107.962,62.33,147.963,199.923,91.673,310.108l-121.844-32.648c-3.689-0.989-7.614,0.067-10.309,2.762
				c-2.697,2.696-3.75,6.626-2.762,10.308l32.588,121.624C292.092,500.711,206.901,498.78,138.616,459.356z M472.367,486.2
				l-56.434-56.437c-2.001-2.001-4.717-3.126-7.547-3.126c-2.83,0-5.544,1.125-7.545,3.126l-20.046,20.047l-25.249-94.229
				l94.228,25.248l-20.046,20.044c-2.001,2.001-3.125,4.716-3.125,7.546s1.124,5.544,3.125,7.546l56.438,56.437L472.367,486.2z"/>
			<path d="M119.46,308.869h16.876c14.798,0,25.135-1.165,31.015-3.497c10.234-4.053,15.354-13.275,15.354-27.669
				c0-7.197-1.595-12.796-4.788-16.799c-3.192-4.004-7.981-6.766-14.367-8.285c5.473-1.824,9.477-4.715,12.011-8.665
				c2.533-3.954,3.8-9.226,3.8-15.812c0-7.804-2.078-13.81-6.233-18.017c-4.157-4.205-10.591-6.765-19.307-7.676
				c-5.271-0.608-10.794-0.912-16.572-0.912h-17.787c-10.644,0-15.962,5.576-15.962,16.724v74.494c0,5.675,1.291,9.78,3.876,12.314
				C109.958,307.601,113.987,308.869,119.46,308.869z M124.477,223.882c0-3.648,1.52-5.471,4.562-5.471h10.488
				c4.46,0,7.806,0.304,10.034,0.912c2.838,0.911,4.991,2.253,6.462,4.028c1.468,1.771,2.204,4.636,2.204,8.59
				c0,5.979-2.28,9.931-6.841,11.858c-2.127,0.911-6.435,1.368-12.922,1.368h-13.986V223.882z M124.477,261.89h14.898
				c6.791,0,11.505,0.509,14.139,1.521c5.169,2.13,7.755,6.235,7.755,12.314c0,7.501-2.433,12.215-7.299,14.141
				c-2.531,1.014-6.687,1.521-12.466,1.521h-11.249c-2.128,0-3.624-0.457-4.485-1.368c-0.86-0.911-1.292-2.381-1.292-4.409V261.89z"
				/>
			<path d="M352.109,304.459c0,3.04,1.367,4.561,4.106,4.561h12.771c1.215,0,2.228-0.406,3.039-1.216
				c0.813-0.813,1.218-1.926,1.218-3.347v-40.744l33.447-54.426c1.218-2.127,1.824-3.75,1.824-4.863
				c-0.002-1.218-0.608-2.079-1.826-2.586c-1.52-0.506-6.639-0.76-15.355-0.76c-2.432,0-4.511,1.521-6.234,4.561
				c-10.641,17.534-17.888,30.001-21.739,37.4c-4.662-9.023-11.859-21.59-21.588-37.707c-1.622-2.836-3.65-4.255-6.08-4.255
				c-10.236,0-15.911,0.202-17.026,0.607c-1.319,0.608-1.977,1.571-1.977,2.889c0,1.115,0.658,2.786,1.977,5.017l33.445,54.732
				V304.459z"/>
			<path d="M291.501,201.383h-12.312c-2.736,0-4.106,1.417-4.106,4.257v65.524c0,7.804-1.115,13.276-3.343,16.419
				c-2.635,3.85-8.614,5.776-17.939,5.776c-8.615,0-14.343-2.024-17.181-6.081c-2.129-2.94-3.191-8.411-3.191-16.418V205.64
				c0-2.84-1.165-4.257-3.497-4.257h-13.379c-2.737,0-4.104,1.417-4.104,4.257v60.659c0,14.393,1.115,24.019,3.344,28.885
				c4.866,10.541,17.128,15.812,36.793,15.812c19.357,0.001,32.025-4.913,38.004-14.745c1.826-3.143,3.041-6.943,3.65-11.404
				c0.608-4.46,0.91-10.742,0.91-18.851V205.64C295.151,202.801,293.935,201.383,291.501,201.383z"/>
			<path d="M206.289,441.58c-66.076-17.707-118.121-69.751-135.826-135.824c-1.526-5.692-7.378-9.074-13.069-7.546
				c-5.693,1.526-9.072,7.377-7.546,13.069c19.672,73.415,77.5,131.241,150.917,150.917c0.925,0.248,1.855,0.367,2.769,0.367
				c4.711,0,9.024-3.145,10.301-7.912C215.36,448.957,211.981,443.106,206.289,441.58z"/>
			<path d="M441.544,206.321c1.277,4.768,5.59,7.912,10.302,7.912c0.912,0,1.843-0.118,2.768-0.367
				c5.692-1.526,9.071-7.377,7.545-13.07C442.487,127.38,384.658,69.553,311.241,49.88c-5.692-1.526-11.544,1.854-13.07,7.545
				c-1.525,5.694,1.854,11.546,7.548,13.072C371.792,88.201,423.839,140.246,441.544,206.321z"/>
			<path d="M249.627,448.018c-2.705-0.093-5.394-0.238-7.994-0.432c-5.88-0.445-11,3.967-11.44,9.843
				c-0.441,5.878,3.967,10.999,9.843,11.44c2.888,0.217,5.87,0.378,8.863,0.48c0.125,0.004,0.248,0.006,0.371,0.006
				c5.725,0,10.46-4.542,10.659-10.309C260.13,453.158,255.518,448.22,249.627,448.018z"/>
			<path d="M262.374,64.056c2.724,0.094,5.415,0.241,7.999,0.434c0.273,0.02,0.542,0.03,0.811,0.03c5.53,0,10.208-4.269,10.63-9.873
				c0.44-5.878-3.967-10.999-9.844-11.441c-2.869-0.215-5.848-0.378-8.856-0.481c-5.915-0.205-10.832,4.406-11.035,10.296
				C251.873,58.911,256.484,63.851,262.374,64.056z"/>
		</g>
	</g>
</g>
<g>
</g>
<g>
</g>
<g>
</g>
<g>
</g>
<g>
</g>
<g>
</g>
<g>
</g>
<g>
</g>
<g>
</g>
<g>
</g>
<g>
</g>
<g>
</g>
<g>
</g>
<g>
</g>
<g>
</g>
</svg>
