<?xml version="1.0" encoding="iso-8859-1"?>
<!-- Generator: Adobe Illustrator 19.0.0, SVG Export Plug-In . SVG Version: 6.00 Build 0)  -->
<svg version="1.1" id="Layer_1" xmlns="http://www.w3.org/2000/svg" xmlns:xlink="http://www.w3.org/1999/xlink" x="0px" y="0px"
	 viewBox="0 0 512 512" style="enable-background:new 0 0 512 512;" xml:space="preserve">
<g>
	<g>
		<g>
			<path d="M458.668,42.666h-42.667V32c0-17.645-14.356-31.999-32-31.999c-17.646,0-32.002,14.354-32.002,31.999v10.666H160.001V32
				c0-17.645-14.356-31.999-32.002-31.999c-17.644,0-31.998,14.354-31.998,31.999v10.666H53.334C23.926,42.666,0,66.59,0,95.998
				v405.335c0,5.89,4.777,10.667,10.667,10.667h490.667c5.891,0,10.667-4.777,10.667-10.667V95.998
				C512,66.59,488.077,42.666,458.668,42.666z M373.332,32c0-5.882,4.785-10.666,10.669-10.666c5.882,0,10.667,4.784,10.667,10.666
				v42.669c0,5.882-4.785,10.666-10.667,10.666c-5.884,0-10.669-4.784-10.669-10.666V32z M117.334,32
				c0-5.882,4.785-10.666,10.667-10.666c5.882,0,10.667,4.784,10.667,10.666v42.669c0,5.882-4.785,10.666-10.667,10.666h-0.002
				c-5.882,0-10.665-4.784-10.665-10.666V32z M490.667,490.665H21.333V149.333h403.066c5.889,0,10.667-4.777,10.667-10.667
				S430.288,128,424.399,128H21.333V95.998c0-17.644,14.354-31.998,32-31.998h42.667v10.67c0,17.645,14.354,31.999,32,31.999
				c17.646,0,32-14.354,32-31.999v-10.67h191.997v10.67c0,17.645,14.356,31.999,32.002,31.999c17.644,0,32-14.354,32-31.999v-10.67
				h42.667c17.644,0,31.998,14.354,31.998,31.998V490.665z"/>
			<path d="M463.775,128h-6.44c-5.889,0-10.667,4.777-10.667,10.667s4.778,10.667,10.667,10.667h6.44
				c5.891,0,10.667-4.777,10.667-10.667S469.667,128,463.775,128z"/>
			<path d="M447.999,181.334H64.001c-5.891,0-10.667,4.777-10.667,10.667v192c0,5.891,4.776,10.667,10.667,10.667h53.332v42.665
				h-15.865c-5.891,0-10.667,4.777-10.667,10.667c0,5.89,4.775,10.667,10.667,10.667h346.532c5.891,0,10.667-4.777,10.667-10.667
				V192.001C458.666,186.11,453.892,181.334,447.999,181.334z M266.665,202.667h42.665v42.664h-42.665V202.667z M266.665,330.666
				h42.665v42.668h-42.665V330.666z M117.332,373.334H74.667v-42.668h42.665V373.334z M117.332,309.333H74.667v-42.668h42.665
				V309.333z M117.332,245.331H74.667v-42.664h42.665V245.331z M181.333,437.333h-42.667v-42.665h42.667V437.333z M181.333,373.334
				h-42.667v-42.668h42.667V373.334z M181.333,309.333h-42.667v-42.668h42.667V309.333z M181.333,245.331h-42.667v-42.664h42.667
				V245.331z M245.331,437.333h-42.665v-42.665h42.665V437.333z M245.331,373.334h-42.665v-42.668h42.665V373.334z M245.331,309.333
				h-42.665v-42.668h42.665V309.333z M245.331,245.331h-42.665v-42.664h42.665V245.331z M309.33,437.333h-42.665v-42.665h42.665
				V437.333z M309.33,309.333h-42.665v-42.668h42.665V309.333z M373.33,437.333h-42.667v-42.665h42.667V437.333z M373.33,373.334
				h-42.667v-42.668h42.667V373.334z M373.33,309.333h-42.667v-42.668h42.667V309.333z M373.33,245.331h-42.667v-42.664h42.667
				V245.331z M437.333,437.333h-42.669v-42.665h42.669V437.333z M437.333,373.334h-42.669v-42.668h42.669V373.334z M437.333,309.333
				h-42.669v-42.668h42.669V309.333z M437.333,245.331L437.333,245.331h-42.669v-42.664h42.669V245.331z"/>
			<path d="M68.444,437.333h-4.444c-5.891,0-10.667,4.777-10.667,10.667s4.776,10.667,10.667,10.667h4.444
				c5.889,0,10.667-4.777,10.667-10.667S74.334,437.333,68.444,437.333z"/>
		</g>
	</g>
</g>
<g>
</g>
<g>
</g>
<g>
</g>
<g>
</g>
<g>
</g>
<g>
</g>
<g>
</g>
<g>
</g>
<g>
</g>
<g>
</g>
<g>
</g>
<g>
</g>
<g>
</g>
<g>
</g>
<g>
</g>
</svg>
