<?xml version="1.0" encoding="iso-8859-1"?>
<!-- Generator: Adobe Illustrator 19.0.0, SVG Export Plug-In . SVG Version: 6.00 Build 0)  -->
<svg version="1.1" id="Layer_1" xmlns="http://www.w3.org/2000/svg" xmlns:xlink="http://www.w3.org/1999/xlink" x="0px" y="0px"
	 viewBox="0 0 512 512" style="enable-background:new 0 0 512 512;" xml:space="preserve">
<g>
	<g>
		<g>
			<path d="M503.096,189.791c-17.754-66.264-60.031-121.519-119.042-155.588C345.389,11.878,301.35,0.079,256.702,0.079
				c-91.709,0-176.965,48.994-222.5,127.865C0.133,186.954-8.852,255.946,8.904,322.21c17.756,66.264,60.031,121.519,119.04,155.587
				c8.209,4.74,16.663,9.001,25.313,12.78h-3.969c-5.892,0-10.671,4.779-10.671,10.671c0,5.893,4.78,10.671,10.671,10.671
				l105.882,0.001c0.042,0,0.083,0.001,0.127,0.001c0.042,0,0.083-0.001,0.125-0.001l107.291,0.001
				c5.894,0,10.671-4.779,10.671-10.671c0-5.893-4.778-10.671-10.671-10.671h-4.76c49.668-21.555,92.119-58.5,119.847-106.521
				C511.869,325.046,520.852,256.055,503.096,189.791z M459.316,373.385c-41.716,72.25-119.834,117.147-203.894,117.192h-0.252
				c-40.866-0.022-81.167-10.831-116.556-31.264c-54.072-31.218-92.816-81.871-109.095-142.627
				c-16.28-60.758-8.052-123.997,23.166-178.07C94.42,66.327,172.594,21.421,256.703,21.421c40.908,0,81.256,10.811,116.681,31.264
				C485.49,117.411,524.04,261.276,459.316,373.385z"/>
			<path d="M206.288,441.539c-66.077-17.707-118.122-69.751-135.826-135.822c-1.526-5.692-7.376-9.074-13.07-7.546
				c-5.692,1.526-9.071,7.377-7.545,13.069c19.672,73.414,77.499,131.24,150.916,150.914c0.925,0.248,1.855,0.367,2.77,0.367
				c4.71,0,9.023-3.145,10.3-7.912C215.359,448.916,211.98,443.065,206.288,441.539z"/>
			<path d="M311.239,49.844c-5.69-1.526-11.544,1.854-13.07,7.545c-1.526,5.693,1.853,11.544,7.547,13.07
				c66.075,17.706,118.12,69.749,135.826,135.822c1.277,4.769,5.588,7.913,10.3,7.913c0.915,0,1.844-0.118,2.768-0.367
				c5.694-1.526,9.073-7.377,7.547-13.069C442.483,127.344,384.654,69.517,311.239,49.844z"/>
			<path d="M249.626,447.977c-2.707-0.093-5.396-0.238-7.993-0.432c-5.852-0.442-10.999,3.965-11.441,9.842
				c-0.442,5.878,3.967,11,9.842,11.441c2.887,0.217,5.867,0.378,8.865,0.48c0.123,0.004,0.245,0.006,0.369,0.006
				c5.725,0,10.463-4.542,10.659-10.307C260.129,453.116,255.516,448.179,249.626,447.977z"/>
			<path d="M262.371,64.019c2.722,0.094,5.413,0.241,7.999,0.434c0.271,0.02,0.54,0.03,0.809,0.03c5.532,0,10.21-4.269,10.63-9.873
				c0.442-5.878-3.964-10.999-9.842-11.441c-2.87-0.214-5.85-0.378-8.858-0.481c-5.882-0.186-10.829,4.406-11.034,10.296
				C251.871,58.876,256.482,63.815,262.371,64.019z"/>
			<path d="M376.345,177.407c-1.365-12.137-10.648-20.946-22.073-20.946h-112.76c-11.566,0-21.588,2.844-29.596,8.043
				c-1.172-4.62-5.346-8.043-10.332-8.043h-67.815c-5.892,0-10.671,4.779-10.671,10.671v138.766c0,5.893,4.78,10.671,10.671,10.671
				h67.815c4.854,0,8.946-3.244,10.24-7.68c10.645,9.591,21.026,31.092,24.665,69.46c1.067,11.331,10.457,19.875,21.841,19.874
				c0.688,0,1.384-0.032,2.068-0.098c19.492-1.844,33.569-8.555,41.839-19.946c12.326-16.976,9.285-39.962,4.71-61.609H363.9
				c9.753,0,15.58-4.232,18.752-7.782c4.857-5.435,6.995-13.171,6.025-21.779L376.345,177.407z M190.913,207.601v84.69v2.937H144.44
				v-21.341h23.237c5.894,0,10.671-4.778,10.671-10.671c0-5.893-4.778-10.671-10.671-10.671H144.44v-74.74h46.473V207.601z
				 M366.736,294.568c-0.363,0.407-1.45,0.659-2.836,0.659h-70.235c-3.237,0-6.298,1.469-8.325,3.994
				c-2.025,2.525-2.795,5.834-2.093,8.994l0.754,3.369c4.444,19.839,9.482,42.326,0.965,54.055
				c-4.512,6.215-13.456,9.997-26.58,11.239l-0.059,0.002c-0.25,0-0.562-0.234-0.592-0.541
				c-2.976-31.392-10.35-55.655-21.914-72.119c-7.997-11.382-16.609-17.103-23.567-19.964V207.6
				c0-11.128,3.802-29.797,29.257-29.797h66.175l46.576-0.018c0.184,0.105,0.734,0.775,0.871,2.007l12.333,109.604
				C367.768,292.053,367.298,293.939,366.736,294.568z"/>
		</g>
	</g>
</g>
<g>
</g>
<g>
</g>
<g>
</g>
<g>
</g>
<g>
</g>
<g>
</g>
<g>
</g>
<g>
</g>
<g>
</g>
<g>
</g>
<g>
</g>
<g>
</g>
<g>
</g>
<g>
</g>
<g>
</g>
</svg>
